<svg style="display:none" xmlns="http://www.w3.org/2000/svg">
    <symbol id="calendar" viewBox="0 0 512 512">
        <g>
            <path d="M492,352c11.046,0,20-8.954,20-20V120c0-44.112-35.888-80-80-80h-26V20c0-11.046-8.954-20-20-20c-11.046,0-20,8.954-20,20
                v20h-91V20c0-11.046-8.954-20-20-20c-11.046,0-20,8.954-20,20v20h-90V20c0-11.046-8.954-20-20-20s-20,8.954-20,20v20H80
                C35.888,40,0,75.888,0,120v312c0,44.112,35.888,80,80,80h352c44.112,0,80-35.888,80-80c0-11.046-8.954-20-20-20
                c-11.046,0-20,8.954-20,20c0,22.056-17.944,40-40,40H80c-22.056,0-40-17.944-40-40V120c0-22.056,17.944-40,40-40h25v20
                c0,11.046,8.954,20,20,20s20-8.954,20-20V80h90v20c0,11.046,8.954,20,20,20s20-8.954,20-20V80h91v20c0,11.046,8.954,20,20,20
                c11.046,0,20-8.954,20-20V80h26c22.056,0,40,17.944,40,40v212C472,343.046,480.954,352,492,352z"/>
        </g>
    </symbol><symbol id="luck" viewBox="0 0 512 512"><g><path d="M492,352c11.046,0,20-8.954,20-20V120c0-44.112-35.888-80-80-80h-26V20c0-11.046-8.954-20-20-20c-11.046,0-20,8.954-20,20
                v20h-91V20c0-11.046-8.954-20-20-20c-11.046,0-20,8.954-20,20v20h-90V20c0-11.046-8.954-20-20-20s-20,8.954-20,20v20H80
                C35.888,40,0,75.888,0,120v312c0,44.112,35.888,80,80,80h352c44.112,0,80-35.888,80-80c0-11.046-8.954-20-20-20
                c-11.046,0-20,8.954-20,20c0,22.056-17.944,40-40,40H80c-22.056,0-40-17.944-40-40V120c0-22.056,17.944-40,40-40h25v20
                c0,11.046,8.954,20,20,20s20-8.954,20-20V80h90v20c0,11.046,8.954,20,20,20s20-8.954,20-20V80h91v20c0,11.046,8.954,20,20,20
                c11.046,0,20-8.954,20-20V80h26c22.056,0,40,17.944,40,40v212C472,343.046,480.954,352,492,352z"/></g></symbol><symbol id="vk" viewBox="0 0 24 24"><path d="m19.915 13.028c-.388-.49-.277-.708 0-1.146.005-.005 3.208-4.431 3.538-5.932l.002-.001c.164-.547 0-.949-.793-.949h-2.624c-.668 0-.976.345-1.141.731 0 0-1.336 3.198-3.226 5.271-.61.599-.892.791-1.225.791-.164 0-.419-.192-.419-.739v-5.105c0-.656-.187-.949-.74-.949h-4.126c-.419 0-.668.306-.668.591 0 .622.945.765 1.043 2.515v3.797c0 .832-.151.985-.486.985-.892 0-3.057-3.211-4.34-6.886-.259-.713-.512-1.001-1.185-1.001h-2.625c-.749 0-.9.345-.9.731 0 .682.892 4.073 4.148 8.553 2.17 3.058 5.226 4.715 8.006 4.715 1.671 0 1.875-.368 1.875-1.001 0-2.922-.151-3.198.686-3.198.388 0 1.056.192 2.616 1.667 1.783 1.749 2.076 2.532 3.074 2.532h2.624c.748 0 1.127-.368.909-1.094-.499-1.527-3.871-4.668-4.023-4.878z"/></symbol><symbol id="calendar1" viewBox="0 0 115.000000 41.000000"><g transform="translate(0.000000,41.000000) scale(0.100000,-0.100000)" fill="#000000" stroke="none">
</g></symbol>
</svg>